<svg xmlns="http://www.w3.org/2000/svg" xmlns:xlink="http://www.w3.org/1999/xlink" viewBox="0,0,256,256" width="480px" height="480px" fill-rule="nonzero"><g transform="translate(21.76,21.76) scale(0.83,0.83)"><g fill="#1a237e" fill-rule="nonzero" stroke="none" stroke-width="1" stroke-linecap="butt" stroke-linejoin="miter" stroke-miterlimit="10" stroke-dasharray="" stroke-dashoffset="0" font-family="none" font-weight="none" font-size="none" text-anchor="none" style="mix-blend-mode: normal"><path d="M4.62651,282.21687c-17.03432,0 -30.84337,-13.80905 -30.84337,-30.84337v-246.74699c0,-17.03432 13.80905,-30.84337 30.84337,-30.84337h246.74699c17.03432,0 30.84337,13.80905 30.84337,30.84337v246.74699c0,17.03432 -13.80905,30.84337 -30.84337,30.84337z" id="shape"></path></g><g fill="none" fill-rule="nonzero" stroke="none" stroke-width="1" stroke-linecap="butt" stroke-linejoin="miter" stroke-miterlimit="10" stroke-dasharray="" stroke-dashoffset="0" font-family="none" font-weight="none" font-size="none" text-anchor="none" style="mix-blend-mode: normal"><g transform="scale(5.33333,5.33333)"><rect x="18" y="4" width="5" height="10" fill="#ffffff"></rect><rect x="18" y="25" width="5" height="10" fill="#ffffff"></rect><rect x="18" y="17" width="5" height="5" fill="#fbc02d"></rect><rect x="10" y="13" width="5" height="33" fill="#ffffff"></rect><rect x="26" y="33" width="5" height="10" fill="#ffffff"></rect><rect x="26" y="12" width="5" height="10" fill="#ffffff"></rect><rect x="26" y="25" width="5" height="5" fill="#ff4081"></rect><rect x="34" y="2" width="5" height="33" fill="#ffffff"></rect></g></g></g></svg>